HIERARCHY
ROOT pelvis
{
	OFFSET 0.000000 0.000000 0.000000
	CHANNELS 6 Xposition Yposition Zposition Xrotation Yrotation Zrotation
	JOINT l_hip
	{
		OFFSET 0.195211 -0.245059 -0.022011
		CHANNELS 3 Xrotation Yrotation Zrotation
		JOINT l_knee
		{
			OFFSET 0.083896 -0.996307 -0.018298
			CHANNELS 3 Xrotation Yrotation Zrotation
			JOINT l_ankle
			{
				OFFSET -0.031606 -1.048662 -0.119000
				CHANNELS 3 Xrotation Yrotation Zrotation
				JOINT l_foot
				{
					OFFSET 0.063841 -0.149483 0.312863
					CHANNELS 3 Xrotation Yrotation Zrotation
					End Site
					{
						OFFSET 0.000000 0.000000 0.000000
					}
				}
			}
		}
	}
	JOINT r_hip
	{
		OFFSET -0.188785 -0.243354 -0.013119
		CHANNELS 3 Xrotation Yrotation Zrotation
		JOINT r_knee
		{
			OFFSET -0.098896 -1.013926 -0.025127
			CHANNELS 3 Xrotation Yrotation Zrotation
			JOINT r_ankle
			{
				OFFSET 0.038376 -1.049454 -0.114596
				CHANNELS 3 Xrotation Yrotation Zrotation
				JOINT r_foot
				{
					OFFSET -0.060300 -0.126955 0.322518
					CHANNELS 3 Xrotation Yrotation Zrotation
					End Site
					{
						OFFSET 0.000000 0.000000 0.000000
					}
				}
			}
		}
	}
	JOINT spine1
	{
		OFFSET -0.006861 0.282462 -0.060688
		CHANNELS 3 Xrotation Yrotation Zrotation
		JOINT spine2
		{
			OFFSET 0.009796 0.349212 -0.004686
			CHANNELS 3 Xrotation Yrotation Zrotation
			JOINT spine3
			{
				OFFSET 0.005545 0.134239 0.076232
				CHANNELS 3 Xrotation Yrotation Zrotation
				JOINT neck
				{
					OFFSET -0.005369 0.569656 -0.136135
					CHANNELS 3 Xrotation Yrotation Zrotation
					JOINT head
					{
						OFFSET 0.009621 0.170484 0.137338
						CHANNELS 3 Xrotation Yrotation Zrotation
						End Site
						{
							OFFSET 0.000000 0.000000 0.000000
						}
					}
				}
				JOINT l_collar
				{
					OFFSET 0.205981 0.322192 -0.100872
					CHANNELS 3 Xrotation Yrotation Zrotation
					JOINT l_shoulder
					{
						OFFSET 0.233388 0.086823 -0.019950
						CHANNELS 3 Xrotation Yrotation Zrotation
						JOINT l_elbow
						{
							OFFSET 0.687295 -0.032736 -0.075278
							CHANNELS 3 Xrotation Yrotation Zrotation
							JOINT l_wrist
							{
								OFFSET 0.651109 0.024639 0.000120
								CHANNELS 3 Xrotation Yrotation Zrotation
								JOINT l_hand
								{
									OFFSET 0.217934 -0.026487 -0.036124
									CHANNELS 3 Xrotation Yrotation Zrotation
									End Site
									{
										OFFSET 0.000000 0.000000 0.000000
									}
								}
							}
						}
					}
				}
				JOINT r_collar
				{
					OFFSET -0.210726 0.316244 -0.114374
					CHANNELS 3 Xrotation Yrotation Zrotation
					JOINT r_shoulder
					{
						OFFSET -0.244017 0.089684 -0.026814
						CHANNELS 3 Xrotation Yrotation Zrotation
						JOINT r_elbow
						{
							OFFSET -0.672913 -0.035979 -0.055153
							CHANNELS 3 Xrotation Yrotation Zrotation
							JOINT r_wrist
							{
								OFFSET -0.670689 0.023586 -0.009661
								CHANNELS 3 Xrotation Yrotation Zrotation
								JOINT r_hand
								{
									OFFSET -0.219937 -0.019827 -0.028502
									CHANNELS 3 Xrotation Yrotation Zrotation
									End Site
									{
										OFFSET 0.000000 0.000000 0.000000
									}
								}
							}
						}
					}
				}
			}
		}
	}
}
MOTION
Frames: 7
Frame Time: 0.016667
0.000000 0.000000 0.000000 0.000000 0.000000 0.000000 -10.351090 -0.528733 0.446289 19.182858 -13.546246 -1.359273 0.000000 0.000000 0.000000 0.000000 0.000000 0.000000 1.223739 -3.612212 2.024336 19.558016 -0.250638 -2.775215 0.000000 0.000000 0.000000 0.000000 0.000000 0.000000 16.601180 3.488056 -1.146623 -0.072422 -1.284673 -1.540533 4.816911 1.501064 -0.022338 -6.345027 2.370667 -3.154376 -4.895527 -6.220090 3.473230 1.800927 3.110617 -7.519249 3.083944 -6.514464 -59.353680 27.891931 -9.589067 15.986997 0.000000 0.000000 0.000000 0.000000 0.000000 0.000000 1.084186 4.926159 12.073006 -1.941751 7.698842 62.276759 9.350006 3.448743 -17.539137 0.000000 0.000000 0.000000 0.000000 0.000000 0.000000 
0.000000 0.000000 0.000000 0.000000 0.000000 0.000000 -9.366667 -0.120227 0.418926 18.546750 -14.283406 -1.363314 0.000000 0.000000 0.000000 0.000000 0.000000 0.000000 0.279739 -3.539074 1.629615 22.604820 -0.232883 -2.313538 0.000000 0.000000 0.000000 0.000000 0.000000 0.000000 16.778953 3.198587 -1.153003 0.170968 -1.296944 -1.369920 5.008279 1.324314 0.028131 -6.163305 2.504829 -3.298618 -5.309165 -6.108036 3.327110 2.108335 3.614821 -7.207852 3.486374 -5.222015 -58.803136 28.277150 -7.604024 15.483702 0.000000 0.000000 0.000000 0.000000 0.000000 0.000000 1.484615 4.076815 11.969079 -1.239576 6.152268 61.635367 9.275956 2.200930 -17.645453 0.000000 0.000000 0.000000 0.000000 0.000000 0.000000 
0.000000 0.000000 0.000000 0.000000 0.000000 0.000000 -8.303674 0.327324 0.437341 17.876270 -15.040718 -1.404811 0.000000 0.000000 0.000000 0.000000 0.000000 0.000000 -0.680807 -3.504542 1.161172 25.785974 -0.228276 -1.741675 0.000000 0.000000 0.000000 0.000000 0.000000 0.000000 17.037784 2.895676 -1.144754 0.470512 -1.307749 -1.166932 5.168061 1.134067 0.090132 -5.904637 2.697411 -3.429489 -5.731711 -5.891199 3.103682 2.437337 4.112090 -6.984840 3.907815 -3.867962 -58.129549 28.918903 -5.587460 14.939946 0.000000 0.000000 0.000000 0.000000 0.000000 0.000000 1.930693 3.223202 11.940493 -0.596707 4.462991 60.792795 8.953723 0.919094 -17.873383 0.000000 0.000000 0.000000 0.000000 0.000000 0.000000 
0.000000 0.000000 0.000000 0.000000 0.000000 0.000000 -7.212784 0.741777 0.466766 17.190963 -15.751010 -1.475927 0.000000 0.000000 0.000000 0.000000 0.000000 0.000000 -1.776239 -3.421051 0.675450 29.178003 -0.309980 -1.147671 0.000000 0.000000 0.000000 0.000000 0.000000 0.000000 17.413640 2.558477 -1.129107 0.763475 -1.302356 -0.928908 5.289038 0.938563 0.156669 -5.605754 2.916047 -3.500616 -6.090907 -5.596534 2.853647 2.805109 4.665598 -6.854458 4.314656 -2.485098 -57.330998 29.654055 -3.647449 14.481941 0.000000 0.000000 0.000000 0.000000 0.000000 0.000000 2.380831 2.306550 11.991246 -0.110414 2.666494 59.746038 8.266304 -0.557367 -18.333854 0.000000 0.000000 0.000000 0.000000 0.000000 0.000000 
0.000000 0.000000 0.000000 0.000000 0.000000 0.000000 -6.102515 1.108901 0.494353 16.476858 -16.411573 -1.565792 0.000000 0.000000 0.000000 0.000000 0.000000 0.000000 -3.086483 -3.239887 0.230999 32.757454 -0.307596 -0.531029 0.000000 0.000000 0.000000 0.000000 0.000000 0.000000 17.861904 2.167080 -1.081936 1.053871 -1.257000 -0.661092 5.392287 0.726303 0.235278 -5.352278 3.114418 -3.452928 -6.432752 -5.189448 2.547295 3.229944 5.325889 -6.856997 4.716575 -1.066532 -56.384860 30.394511 -1.877416 14.188358 0.000000 0.000000 0.000000 0.000000 0.000000 0.000000 2.847900 1.339615 12.120855 0.207926 0.841545 58.434327 7.304144 -2.269400 -19.012583 0.000000 0.000000 0.000000 0.000000 0.000000 0.000000 
0.000000 0.000000 0.000000 0.000000 0.000000 0.000000 -4.935487 1.448858 0.538569 15.695701 -17.069841 -1.676299 0.000000 0.000000 0.000000 0.000000 0.000000 0.000000 -4.427611 -3.013117 -0.166400 36.234327 -0.262751 0.105643 0.000000 0.000000 0.000000 0.000000 0.000000 0.000000 18.368701 1.761098 -0.984931 1.397916 -1.207002 -0.390669 5.475798 0.520415 0.323020 -5.035343 3.232416 -3.456812 -6.834963 -4.755362 2.261405 3.706903 6.009984 -6.927315 5.105052 0.430624 -55.417370 31.043569 -0.308627 14.099162 0.000000 0.000000 0.000000 0.000000 0.000000 0.000000 3.402152 0.369368 12.242826 0.528964 -1.123862 57.007140 6.455234 -3.795864 -20.023364 0.000000 0.000000 0.000000 0.000000 0.000000 0.000000 
0.000000 0.000000 0.000000 0.000000 0.000000 0.000000 -3.670715 1.792849 0.613421 14.867074 -17.754944 -1.777879 0.000000 0.000000 0.000000 0.000000 0.000000 0.000000 -5.636994 -2.787422 -0.478082 39.254078 -0.163090 0.758198 0.000000 0.000000 0.000000 0.000000 0.000000 0.000000 18.909636 1.364162 -0.843743 1.902013 -1.183460 -0.139643 5.584024 0.326631 0.429583 -4.662532 3.262968 -3.529264 -7.474251 -4.310463 2.034647 4.189678 6.606469 -7.005300 5.452778 1.961863 -54.473636 31.581434 1.128993 14.070412 0.000000 0.000000 0.000000 0.000000 0.000000 0.000000 4.010056 -0.477151 12.283388 0.848499 -3.161399 55.560319 5.814311 -5.223134 -21.078377 0.000000 0.000000 0.000000 0.000000 0.000000 0.000000 
